<svg fill="#fc6e20" xmlns="http://www.w3.org/2000/svg" width="24" height="22.149" viewBox="0 0 24 22.149">
  <g id="video" transform="translate(-11.3 -14.2)">
    <g id="Group_10036" data-name="Group 10036" transform="translate(11.3 14.2)">
      <path id="Path_3934" data-name="Path 3934" d="M30.449,46.74a34.42,34.42,0,0,1,3.007-2.635,2.4,2.4,0,0,1,1.519-.341c.217.031.434.775.465,1.178.031,2.852.062,5.735,0,8.587,0,.5-.31,1.271-.651,1.364a1.947,1.947,0,0,1-1.612-.4,32.5,32.5,0,0,1-2.666-2.728v1.8c-.031,1.8-.589,2.387-2.387,2.387-3.968.031-7.905,0-11.874,0-.868,0-1.767.031-2.635,0-1.488-.062-2.046-.651-2.046-2.139-.031-3.007,0-5.983,0-8.99,0-1.4.589-2.139,1.922-2.17,5.053-.031,10.107-.031,15.191,0a1.753,1.753,0,0,1,1.86,1.953A19.644,19.644,0,0,0,30.449,46.74Z" transform="translate(-11.476 -33.813)"/>
      <g id="Group_10035" data-name="Group 10035" transform="translate(0)">
        <path id="Path_3935" data-name="Path 3935" d="M15.609,22.3a4.143,4.143,0,0,1-4.309-4,4.112,4.112,0,0,1,4.4-4,4.181,4.181,0,0,1,4.216,4A4.124,4.124,0,0,1,15.609,22.3Z" transform="translate(-11.3 -14.268)"/>
        <path id="Path_3936" data-name="Path 3936" d="M49.949,18.23a4.163,4.163,0,0,1-4.309,4,4.232,4.232,0,0,1-4.34-4,4.335,4.335,0,0,1,8.649,0Z" transform="translate(-32 -14.2)"/>
      </g>
    </g>
  </g>
</svg>
