<svg width="56" height="56" fill="none" xmlns="http://www.w3.org/2000/svg">
    <path d="M51.078 8.313h-1.64V3.39a1.64 1.64 0 0 0-1.641-1.641H4.922a1.64 1.64 0 0 0-1.64 1.64v4.922H1.64a1.64 1.64 0 0 0 0 3.282h1.64v4.922c0 .906.735 1.64 1.64 1.64h42.876a1.64 1.64 0 0 0 1.64-1.64v-4.922h1.641c.905 0 1.64.736 1.64 1.64v6.947c0 .826-.617 1.526-1.435 1.628L30.67 24.372a4.93 4.93 0 0 0-4.312 4.884v2.025h-1.64a1.64 1.64 0 0 0-1.64 1.64v16.407A4.928 4.928 0 0 0 28 54.25a4.928 4.928 0 0 0 4.922-4.922V32.922a1.64 1.64 0 0 0-1.64-1.64H29.64v-2.026c0-.826.617-1.526 1.436-1.628l20.611-2.563A4.93 4.93 0 0 0 56 20.181v-6.947a4.928 4.928 0 0 0-4.922-4.921zM46.156 5.03v3.515c-5.956.86-11.99.865-17.96.012l-3.21-.458a66.401 66.401 0 0 0-18.424-.052V5.03h39.594zM6.563 14.875V11.36a63.134 63.134 0 0 1 17.96-.012l3.21.459a66.374 66.374 0 0 0 18.423.054v3.014H6.563zM29.64 49.328c0 .905-.736 1.64-1.641 1.64s-1.64-.735-1.64-1.64V34.562h3.28v14.766z" fill="#0B41A8"/>
</svg>
