<svg width="24" height="24" fill="none" xmlns="http://www.w3.org/2000/svg">
    <path d="M14.297 12a2.297 2.297 0 1 1-4.594 0 2.297 2.297 0 0 1 4.594 0z" fill="#fff"/>
    <path d="M17.371 7.937c-.11-.3-.286-.57-.515-.793a2.133 2.133 0 0 0-.792-.515c-.243-.094-.608-.207-1.28-.237-.727-.033-.944-.04-2.784-.04-1.84 0-2.058.007-2.785.04-.672.03-1.036.143-1.28.237-.298.11-.57.287-.791.515a2.136 2.136 0 0 0-.516.793c-.094.243-.207.607-.237 1.28-.033.726-.04.944-.04 2.784 0 1.84.007 2.058.04 2.784.03.672.143 1.037.237 1.28.11.299.287.57.515.792.223.229.493.405.793.515.243.095.607.207 1.28.238.726.033.944.04 2.784.04 1.84 0 2.058-.007 2.784-.04.672-.031 1.037-.143 1.28-.238a2.282 2.282 0 0 0 1.307-1.307c.095-.243.207-.608.238-1.28.033-.726.04-.944.04-2.784 0-1.84-.007-2.058-.04-2.785-.03-.672-.143-1.036-.238-1.28zM12 15.539a3.538 3.538 0 1 1 0-7.077 3.538 3.538 0 0 1 0 7.077zm3.678-6.39a.827.827 0 1 1 0-1.654.827.827 0 0 1 0 1.654z" fill="#fff"/>
    <path d="M12 0C5.374 0 0 5.374 0 12s5.374 12 12 12 12-5.374 12-12S18.626 0 12 0zm6.85 14.84c-.034.734-.15 1.235-.321 1.674a3.524 3.524 0 0 1-2.015 2.015c-.439.17-.94.287-1.673.32-.735.034-.97.042-2.84.042-1.872 0-2.107-.008-2.842-.042-.733-.033-1.234-.15-1.672-.32a3.375 3.375 0 0 1-1.221-.795 3.377 3.377 0 0 1-.795-1.22c-.17-.439-.287-.94-.32-1.673-.034-.735-.042-.97-.042-2.841 0-1.871.008-2.106.042-2.84.033-.734.15-1.235.32-1.674.173-.46.444-.876.795-1.22.344-.35.76-.622 1.22-.795.439-.17.94-.287 1.673-.32.735-.034.97-.042 2.841-.042 1.871 0 2.106.008 2.84.042.734.033 1.235.15 1.674.32.46.173.876.444 1.22.795.35.344.622.76.795 1.22.17.439.287.94.32 1.673.034.735.042.97.042 2.841 0 1.871-.008 2.106-.042 2.84z" fill="#fff"/>
</svg>
