<svg width="24" height="24" fill="none" xmlns="http://www.w3.org/2000/svg">
    <path d="M12 .48C5.638.48.48 5.638.48 12c0 6.363 5.158 11.52 11.52 11.52 6.362 0 11.52-5.157 11.52-11.52C23.52 5.639 18.362.48 12 .48zM9.18 16.775H6.847V9.268H9.18v7.507zM8 8.346c-.738 0-1.214-.522-1.214-1.167 0-.659.49-1.165 1.243-1.165.753 0 1.213.506 1.228 1.165 0 .645-.475 1.167-1.258 1.167zm9.7 8.43h-2.333v-4.161c0-.969-.338-1.626-1.182-1.626-.644 0-1.027.445-1.196.873-.063.153-.078.369-.078.584v4.328h-2.334v-5.112c0-.937-.03-1.72-.061-2.395h2.026l.107 1.043h.047c.307-.49 1.06-1.212 2.318-1.212 1.535 0 2.686 1.028 2.686 3.238v4.44z" fill="#fff"/>
</svg>
