<svg xmlns="http://www.w3.org/2000/svg" width="70" height="34" fill="none" viewBox="0 0 70 34">
    <g clip-path="url(#clip0)">
        <path fill="#FEE600" d="M8.372 11.168H2.219v5.484H0v3.789h2.219v8.176c0 3.988 2.118 5.184 6.254 5.184 1.11 0 2.118-.199 3.126-.398v-4.587c-2.017.1-3.126.1-3.126-1.595v-6.78H11.7v-3.79H8.372v-5.483zM19.568 16.65h-6.355V33.5h6.355V16.65zM19.568 9.871h-6.355v4.686h6.355V9.871zM30.461 29.613c-1.916 0-2.925-1.695-2.925-4.487s.908-4.587 2.824-4.587c1.413 0 2.118.898 2.421 2.393h6.052c-.404-3.888-3.631-6.68-8.473-6.68-5.648 0-9.38 3.789-9.38 8.974 0 5.085 3.732 8.873 9.38 8.873 5.145 0 8.574-3.19 8.574-7.278h-6.052c-.1 1.795-.908 2.792-2.42 2.792zM57.795 16.651h-7.06L46.7 21.637V9.87h-6.253v23.63H46.7v-4.686l1.21-1.396 3.43 6.083h7.161l-6.354-10.669 5.648-6.182zM70 20.44v-3.788h-3.228v-5.484H60.52v5.484h-2.22v3.789h2.22v8.176c0 3.988 2.118 5.184 6.253 5.184 1.11 0 2.119-.199 3.127-.398v-4.587c-2.017.1-3.127.1-3.127-1.595v-6.78H70zM62.637 0l-8.675 6.88-4.64-2.892 4.64 7.18L62.638 0z"/>
    </g>
    <defs>
        <clipPath id="clip0">
            <path fill="#fff" d="M0 0H70V34H0z"/>
        </clipPath>
    </defs>
</svg>
