<svg width="40" height="40" fill="none" xmlns="http://www.w3.org/2000/svg">
    <rect width="40" height="40" rx="20" transform="matrix(-1 0 0 1 40 0)" fill="#fff" fill-opacity=".5"/>
    <path fill-rule="evenodd" clip-rule="evenodd" d="M28 20a1 1 0 0 0-1-1H13a1 1 0 1 0 0 2h14a1 1 0 0 0 1-1z" fill="#161D4A"/>
    <path fill-rule="evenodd" clip-rule="evenodd" d="M19.293 12.293a1 1 0 0 0 0 1.414L25.586 20l-6.293 6.293a1 1 0 0 0 1.414 1.414l7-7a1 1 0 0 0 0-1.414l-7-7a1 1 0 0 0-1.414 0z" fill="#161D4A"/>
</svg>
