<svg xmlns="http://www.w3.org/2000/svg" width="80" height="80" fill="none" viewBox="0 0 80 80">
    <circle cx="40" cy="40" r="40" fill="#F3F3F3"/>
    <g clip-path="url(#clip0)">
        <path fill="#D9D9D9" d="M27.827 36.255h-2.813v2.58H24v1.783h1.014v3.848c0 1.877.969 2.44 2.86 2.44.506 0 .968-.094 1.429-.188V44.56c-.923.047-1.43.047-1.43-.75v-3.192h1.476v-1.782h-1.522v-2.581zM32.946 38.836H30.04v7.93h2.905v-7.93zM32.946 35.645H30.04v2.206h2.905v-2.206zM37.924 44.936c-.876 0-1.337-.798-1.337-2.112 0-1.313.415-2.158 1.291-2.158.646 0 .968.422 1.107 1.126h2.766c-.184-1.83-1.66-3.144-3.873-3.144-2.582 0-4.288 1.783-4.288 4.223 0 2.393 1.706 4.176 4.288 4.176 2.352 0 3.92-1.501 3.92-3.425H39.03c-.046.845-.415 1.314-1.107 1.314zM50.42 38.836H47.19l-1.844 2.346v-5.537h-2.859v11.12h2.86V44.56l.552-.656 1.568 2.862h3.274l-2.905-5.02 2.582-2.91zM56 40.618v-1.782h-1.476v-2.581h-2.86v2.58H50.65v1.783h1.015v3.848c0 1.877.968 2.44 2.859 2.44.507 0 .968-.094 1.429-.188V44.56c-.922.047-1.43.047-1.43-.75v-3.192H56zM52.633 31l-3.965 3.237-2.121-1.36 2.12 3.378L52.634 31z"/>
    </g>
    <defs>
        <clipPath id="clip0">
            <path fill="#fff" d="M0 0H32V16H0z" transform="translate(24 31)"/>
        </clipPath>
    </defs>
</svg>
